<svg preserveAspectRatio="xMidYMid meet" data-bbox="0 0 841.89 197.29" viewBox="0 0 841.89 197.29" xmlns="http://www.w3.org/2000/svg" data-type="color" role="presentation" aria-hidden="true">
    <g>
        <g>
            <path fill="#063c64" d="M841.89 0v197.29H0V0h841.89z" data-color="1"></path>
            <path d="M66.1 52.55c6.38 0 10 3.46 10 12.58v5.29h19v-4c0-20.43-10-32.11-29.55-32.11a42.94 42.94 0 00-5.69.4v19.61a10.09 10.09 0 016.24-1.77z" fill="#ffffff" data-color="2"></path>
            <path d="M95.28 132.81c0-36.49-39.22-41.41-39.22-67.68V35.41C42.8 38.74 36 49.61 36 66.41c0 36.48 39.22 41.4 39.22 67.67 0 3.85-.72 6.65-2 8.61h21.11a49.09 49.09 0 00.95-9.88z" fill="#ffffff" data-color="2"></path>
            <path d="M54.42 134.08V125h-19v7.85c0 20.43 10.22 32.1 29.92 32.1 14.75 0 24.19-6.55 28-18.42H64.82c-6.38-.04-10.4-3.33-10.4-12.45z" fill="#ffffff" data-color="2"></path>
            <path fill="#ffffff" d="M157.3 163.45h20.61l-18.57-47.09h-20.1l18.06 47.09z" data-color="2"></path>
            <path fill="#ffffff" d="M177.91 35.76h-20.06L131.58 91.4l-20.06 42.5v29.55h20.06v-39.22l6.2-11.67h20.06L150 92.67l27.91-56.91z" data-color="2"></path>
            <path fill="#ffffff" d="M131.58 35.76h-20.06V125l20.06-42.5V35.76z" data-color="2"></path>
            <path d="M238.65 101.07c8.94-4.2 13.14-12.77 13.14-25.91v-10c0-16.31-6.15-25.72-20.07-28.49v43.05c0 10.22-4.56 13.5-12 13.5h-7.84V54h9.67a10.29 10.29 0 016.41 1.8V36.08a56.76 56.76 0 00-5.86-.32h-30.32v127.69h20.06v-52h37.33a19.12 19.12 0 00-10.52-10.38z" fill="#ffffff" data-color="2"></path>
            <path d="M252 128.25a49.48 49.48 0 00-1.48-13h-21.67c2.08 2.59 3.06 6.6 3.06 12.44v20.06c0 10.4.73 12.41 1.82 15.69h20.43c-2-4.74-2.19-9.3-2.19-15.5z" fill="#ffffff" data-color="2"></path>
            <path d="M309.06 134.08c0 3.92-.74 6.79-2.09 8.79h21.13a47.12 47.12 0 001-10.06v-66.4c0-16.48-7-27.26-20.07-30.81v98.48z" fill="#ffffff" data-color="2"></path>
            <path d="M288.27 134.08v-69c0-9.12 4-12.58 10.4-12.58a10.35 10.35 0 016.59 2V34.8a43.11 43.11 0 00-6.59-.5C279 34.3 268.2 46 268.2 66.41v66.4c0 20.43 10.77 32.1 30.47 32.1 14.67 0 24.38-6.49 28.38-18.24h-28.38c-6.39 0-10.4-3.47-10.4-12.59z" fill="#ffffff" data-color="2"></path>
            <path fill="#ffffff" d="M382.03 57.8v105.65h-20.07V57.8h20.07z" data-color="2"></path>
            <path fill="#ffffff" d="M403 35.76V54h-62.02V35.76H403z" data-color="2"></path>
            <path d="M444.05 52.55c6.38 0 10 3.46 10 12.58v5.29h19v-4c0-20.43-10-32.11-29.55-32.11a42.94 42.94 0 00-5.69.4v19.61a10.09 10.09 0 016.24-1.77z" fill="#f47920" data-color="3"></path>
            <path d="M473.23 132.81c0-36.49-39.23-41.41-39.23-67.68V35.41c-13.26 3.33-20.06 14.2-20.06 31 0 36.48 39.22 41.4 39.22 67.67 0 3.85-.72 6.65-2 8.61h21.14a49.09 49.09 0 00.93-9.88z" fill="#f47920" data-color="3"></path>
            <path d="M432.37 134.08V125h-19v7.85c0 20.43 10.22 32.1 29.92 32.1 14.75 0 24.19-6.55 28-18.42h-28.52c-6.38-.04-10.4-3.33-10.4-12.45z" fill="#f47920" data-color="3"></path>
            <path d="M718.75 101.07c8.94-4.2 13.14-12.77 13.14-25.91v-10c0-16.31-6.16-25.72-20.07-28.49v43.05c0 10.22-4.56 13.5-12 13.5h-7.84V54h9.67a10.29 10.29 0 016.35 1.8V36.08a56.8 56.8 0 00-5.87-.32h-30.26v127.69h20.07v-52h37.33a19.12 19.12 0 00-10.52-10.38z" fill="#f47920" data-color="3"></path>
            <path d="M732.07 128.25a49.48 49.48 0 00-1.48-13H709c2.08 2.59 3 6.6 3 12.44v20.06c0 10.4.73 12.41 1.83 15.69h20.43c-2-4.74-2.19-9.3-2.19-15.5z" fill="#f47920" data-color="3"></path>
            <path fill="#f47920" d="M785.16 57.8v105.65h-20.07V57.8h20.07z" data-color="3"></path>
            <path fill="#f47920" d="M806.13 35.76V54h-62.02V35.76h62.02z" data-color="3"></path>
            <path fill="#f47920" d="M517.19 35.76h-27.91v127.69h17.51V73.16l14.96 90.29h.79l7.43-49.27-12.78-78.42z" data-color="3"></path>
            <path fill="#f47920" d="M531.97 126.42l-5.59 37.03h14.34l13.87-91.57v91.57h18.97V35.76h-27.91l-13.68 90.66z" data-color="3"></path>
            <path fill="#f47920" d="M637.4 35.76h-29.37l-13.34 83.4h17.92l9.1-60.78 9.67 64.58h-37.3l-6.48 40.49h18.42l3.47-23.17h24.63l3.46 23.17h20.25L637.4 35.76z" data-color="3"></path>
        </g>
    </g>
</svg>